# xmcd CD database file
#
# Track frame offsets:
#	150
#	15720
#	33682
#	49360
#	69437
#	85175
#	109157
#	129800
#	142555
#	152765
#	166832
#	181545
#	199340
#	215290
#	235042
#	250984
#	275527
#	296910
#	309519
#	320140
#
# Disc length: 4461 seconds
#
# Revision: 0
# Processed by: cddbd v1.5PL3 Copyright (c) Steve Scherf et al.
# Submitted via: CDex 1.51
#
DISCID=19116b14
DTITLE=Miles Davis - Miles Ahead
DYEAR=1957
DGENRE=Jazz
TTITLE0=Springsville
TTITLE1=The Maids of Cadiz
TTITLE2=The Duke
TTITLE3=My Ship
TTITLE4=Miles Ahead
TTITLE5=Blues for Pablo
TTITLE6=New Rhumba
TTITLE7=The Meaning of the Blues
TTITLE8=Lament
TTITLE9=I Don't Wanna Be Kissed (By Anyone But You)
TTITLE10=Springsville (remake take 7)
TTITLE11=The Maids of Cadiz (take 1)
TTITLE12=The Duke (take 11)
TTITLE13=My Ship (take 1)
TTITLE14=Miles Ahead (take 4)
TTITLE15=Blues For Pablo (take 1)
TTITLE16=New Rhumba (take 5)
TTITLE17=The Meaning of the Blues (rehearsal take)
TTITLE18=Lament (rehearsal take)
TTITLE19=I Don't Wanna Be Kissed (By Anyone But You) (take 8)
EXTD=YEAR: 1957
EXTT0=
EXTT1=
EXTT2=
EXTT3=
EXTT4=
EXTT5=
EXTT6=
EXTT7=
EXTT8=
EXTT9=
EXTT10=
EXTT11=
EXTT12=
EXTT13=
EXTT14=
EXTT15=
EXTT16=
EXTT17=
EXTT18=
EXTT19=
PLAYORDER=
